# xmcd CD database file
#
# Track frame offsets:
#	150
#	40674
#	72531
#	119976
#	157019
#	208935
#	242169
#
# Disc length: 3946 seconds
#
# Revision: 0
# Processed by: cddbd v1.5.1PL0 Copyright (c) Steve Scherf et al.
# Submitted via: CDex 1.51
#
DISCID=6e0f6807
DTITLE=john coltrane - 1963
DYEAR=1963
DGENRE=Jazz
TTITLE0=blue traine
TTITLE1=naima
TTITLE2=my favorite things
TTITLE3=mr. pc
TTITLE4=traneing in
TTITLE5=impressions
TTITLE6=spiritual
EXTD=YEAR: 1963
EXTT0=
EXTT1=
EXTT2=
EXTT3=
EXTT4=
EXTT5=
EXTT6=
PLAYORDER=
